<svg width="50" height="50" viewBox="0 0 50 50" fill="none" xmlns="http://www.w3.org/2000/svg">
<g id="Frame" clip-path="url(#clip0_9_380)">
<g id="Group">
<path id="Vector" d="M25 0C35.3375 0 43.75 8.47083 43.75 18.8854C43.75 33.6833 26.7625 48.9625 26.0396 49.6042C25.7538 49.86 25.3839 50.0016 25.0004 50.0019C24.6169 50.0023 24.2467 49.8615 23.9604 49.6063C23.2375 48.9625 6.25 33.6833 6.25 18.8854C6.25 8.47083 14.6625 0 25 0ZM25 29.1667C30.7438 29.1667 35.4167 24.4938 35.4167 18.75C35.4167 13.0063 30.7438 8.33333 25 8.33333C19.2563 8.33333 14.5833 13.0063 14.5833 18.75C14.5833 24.4938 19.2563 29.1667 25 29.1667Z" fill="#FF6600"/>
</g>
</g>
<defs>
<clipPath id="clip0_9_380">
<rect width="50" height="50" fill="white" transform="matrix(-1 0 0 1 50 0)"/>
</clipPath>
</defs>
</svg>
